<svg width="35" height="52" viewBox="0 0 35 52" fill="none" xmlns="http://www.w3.org/2000/svg">
<g clip-path="url(#clip0_1_420)">
<path d="M8.66667 52C13.4507 52 17.3333 48.1173 17.3333 43.3333V34.6666H8.66667C3.88267 34.6666 0 38.5493 0 43.3333C0 48.1173 3.88267 52 8.66667 52Z" fill="#0ACF83"/>
<path d="M0 26C0 21.216 3.88267 17.3334 8.66667 17.3334H17.3333V34.6667H8.66667C3.88267 34.6667 0 30.784 0 26Z" fill="#A259FF"/>
<path d="M0 8.66667C0 3.88267 3.88267 0 8.66667 0H17.3333V17.3333H8.66667C3.88267 17.3333 0 13.4507 0 8.66667Z" fill="#F24E1E"/>
<path d="M17.3333 0H26C30.784 0 34.6666 3.88267 34.6666 8.66667C34.6666 13.4507 30.784 17.3333 26 17.3333H17.3333V0Z" fill="#FF7262"/>
<path d="M34.6666 26C34.6666 30.784 30.784 34.6667 26 34.6667C21.216 34.6667 17.3333 30.784 17.3333 26C17.3333 21.216 21.216 17.3334 26 17.3334C30.784 17.3334 34.6666 21.216 34.6666 26Z" fill="#1ABCFE"/>
</g>
<defs>
<clipPath id="clip0_1_420">
<rect width="34.6667" height="52" fill="white"/>
</clipPath>
</defs>
</svg>
